<?xml version="1.0" encoding="UTF-8"?>
<!DOCTYPE svg PUBLIC "-//W3C//DTD SVG 1.1//EN" "http://www.w3.org/Graphics/SVG/1.1/DTD/svg11.dtd">
<!-- Creator: CorelDRAW -->
<svg xmlns="http://www.w3.org/2000/svg" xml:space="preserve" width="2048px" height="2048px" style="shape-rendering:geometricPrecision; text-rendering:geometricPrecision; image-rendering:optimizeQuality; fill-rule:evenodd; clip-rule:evenodd"
viewBox="0 0 2048 2048"
 xmlns:xlink="http://www.w3.org/1999/xlink">
 <defs>
  <style type="text/css">
   <![CDATA[
    .fil2 {fill:none}
    .fil1 {fill:#3949AB}
    .fil0 {fill:#5C6BC0}
    .fil9 {fill:#E0E0E0}
    .fil10 {fill:#26C6DA;fill-rule:nonzero}
    .fil5 {fill:#424242;fill-rule:nonzero}
    .fil3 {fill:#4DD0E1;fill-rule:nonzero}
    .fil6 {fill:#DFB28B;fill-rule:nonzero}
    .fil7 {fill:#E0E0E0;fill-rule:nonzero}
    .fil4 {fill:#FF8F00;fill-rule:nonzero}
    .fil8 {fill:#FFD54F;fill-rule:nonzero}
   ]]>
  </style>
   <clipPath id="id0">
    <path d="M1024 -0.0011811c565.541,0 1024,458.461 1024,1024 0,565.541 -458.461,1024 -1024,1024 -565.541,0 -1024,-458.461 -1024,-1024 0,-565.541 458.461,-1024 1024,-1024z"/>
   </clipPath>
 </defs>
 <g id="Layer_x0020_1">
  <metadata id="CorelCorpID_0Corel-Layer"/>
  <path class="fil0" d="M1024 -0.0011811c565.541,0 1024,458.461 1024,1024 0,565.541 -458.461,1024 -1024,1024 -565.541,0 -1024,-458.461 -1024,-1024 0,-565.541 458.461,-1024 1024,-1024z"/>
  <g style="clip-path:url(#id0)">
   <g id="_517130656">
    <g>
     <polygon id="_4899821521" class="fil1" points="1159.57,898.9 2295.45,2034.78 2293.14,2033.62 2290.83,2032.41 2288.51,2031.16 2286.19,2029.87 2283.87,2028.54 2281.55,2027.16 2279.23,2025.74 2276.91,2024.28 2274.58,2022.78 2272.25,2021.24 2269.93,2019.65 2267.6,2018.03 2265.26,2016.36 2262.93,2014.64 2260.6,2012.89 2258.26,2011.1 2255.92,2009.26 2253.58,2007.38 2251.24,2005.46 2248.9,2003.49 2246.55,2001.49 2244.21,1999.44 2241.86,1997.35 2239.51,1995.22 2237.16,1993.04 2234.81,1990.83 2232.45,1988.57 2230.1,1986.27 2227.74,1983.93 2225.38,1981.54 2223.02,1979.12 2220.66,1976.65 1084.78,840.766 1087.14,843.235 1089.5,845.66 1091.86,848.044 1094.22,850.386 1096.57,852.687 1098.93,854.944 1101.28,857.161 1103.63,859.334 1105.98,861.466 1108.32,863.557 1110.67,865.605 1113.02,867.61 1115.36,869.574 1117.7,871.496 1120.04,873.375 1122.38,875.213 1124.71,877.008 1127.05,878.762 1129.38,880.474 1131.71,882.144 1134.04,883.771 1136.37,885.356 1138.7,886.9 1141.03,888.401 1143.35,889.861 1145.67,891.278 1147.99,892.654 1150.31,893.987 1152.63,895.279 1154.95,896.527 1157.26,897.734 "/>
     <polygon id="_489981408" class="fil1" points="1284.22,898.899 2420.1,2034.78 2383.73,2441.28 1247.85,1305.4 "/>
     <polygon id="_489982752" class="fil1" points="1378.28,1373.15 2514.16,2509.03 2512.25,2508.44 2510.35,2507.86 2508.45,2507.28 2506.56,2506.71 2504.68,2506.15 2502.8,2505.59 2500.93,2505.04 2499.07,2504.5 2497.21,2503.96 2495.36,2503.42 2493.52,2502.9 2491.68,2502.38 2489.84,2501.86 2488.02,2501.35 2486.2,2500.85 2484.38,2500.35 2482.57,2499.87 2480.77,2499.38 2478.97,2498.9 2477.17,2498.43 2475.39,2497.97 2473.6,2497.51 2471.82,2497.06 2470.05,2496.61 2468.28,2496.17 2466.52,2495.74 2464.76,2495.31 2463.01,2494.89 2461.26,2494.48 2459.51,2494.07 2457.77,2493.67 2456.04,2493.28 1320.15,1357.39 1321.89,1357.79 1323.63,1358.19 1325.38,1358.6 1327.13,1359.01 1328.88,1359.43 1330.64,1359.86 1332.4,1360.29 1334.17,1360.73 1335.94,1361.18 1337.72,1361.63 1339.5,1362.09 1341.29,1362.55 1343.09,1363.02 1344.89,1363.5 1346.69,1363.98 1348.5,1364.47 1350.32,1364.97 1352.14,1365.47 1353.96,1365.98 1355.8,1366.49 1357.64,1367.01 1359.48,1367.54 1361.33,1368.07 1363.19,1368.61 1365.05,1369.16 1366.92,1369.71 1368.8,1370.27 1370.68,1370.83 1372.57,1371.4 1374.47,1371.98 1376.37,1372.56 "/>
     <polygon id="_489982776" class="fil1" points="1322.68,1359.67 2458.57,2495.55 2459.16,2496.16 2459.73,2496.79 2460.29,2497.44 2460.83,2498.1 1324.95,1362.21 1324.41,1361.55 1323.85,1360.91 1323.28,1360.28 "/>
     <polygon id="_489982296" class="fil1" points="1324.95,1362.21 2460.83,2498.1 2462.51,2500.3 2464.01,2502.49 2465.33,2504.66 2466.49,2506.82 2467.49,2508.96 2468.31,2511.08 2468.98,2513.19 2469.49,2515.29 2469.85,2517.36 2470.05,2519.42 2470.1,2521.47 2470,2523.5 2469.76,2525.51 2469.37,2527.51 2468.84,2529.49 2468.18,2531.46 1332.3,1395.58 1332.96,1393.61 1333.49,1391.63 1333.87,1389.63 1334.12,1387.62 1334.22,1385.59 1334.17,1383.54 1333.97,1381.48 1333.61,1379.4 1333.1,1377.31 1332.43,1375.2 1331.6,1373.08 1330.61,1370.93 1329.45,1368.78 1328.12,1366.6 1326.62,1364.42 "/>
     <polygon id="_489983352" class="fil1" points="931.664,1225.38 2067.54,2361.26 2069.36,2363 2071.06,2364.86 2072.65,2366.83 2074.12,2368.9 2075.48,2371.07 2076.71,2373.33 2077.82,2375.69 2078.81,2378.14 2079.68,2380.67 2080.08,2382.02 2080.44,2383.38 2080.76,2384.74 2081.04,2386.1 2081.28,2387.46 2081.47,2388.82 2081.62,2390.18 2081.73,2391.54 2081.79,2392.89 2081.81,2394.24 2081.79,2395.58 2081.73,2396.92 2081.63,2398.25 2081.48,2399.58 2081.28,2400.9 2081.05,2402.21 2080.77,2403.51 2080.44,2404.81 2080.08,2406.1 2079.67,2407.37 2079.21,2408.63 2078.71,2409.89 2078.16,2411.13 2077.57,2412.35 2076.94,2413.57 2076.26,2414.76 2075.54,2415.95 2074.77,2417.12 2073.95,2418.27 2073.09,2419.4 2072.19,2420.52 2071.24,2421.62 935.357,1285.74 936.308,1284.64 937.214,1283.52 938.074,1282.39 938.887,1281.23 939.656,1280.07 940.38,1278.88 941.059,1277.68 941.694,1276.47 942.283,1275.24 942.827,1274 943.328,1272.75 943.784,1271.49 944.195,1270.21 944.564,1268.93 944.887,1267.63 945.167,1266.33 945.403,1265.02 945.596,1263.7 945.745,1262.37 945.851,1261.04 945.914,1259.7 945.934,1258.35 945.911,1257.01 945.845,1255.65 945.738,1254.3 945.587,1252.94 945.394,1251.58 945.159,1250.22 944.881,1248.86 944.563,1247.5 944.201,1246.14 943.798,1244.78 942.933,1242.25 941.943,1239.81 940.83,1237.45 939.595,1235.18 938.241,1233.02 936.768,1230.95 935.181,1228.98 933.479,1227.12 "/>
     <polygon id="_489983256" class="fil1" points="935.357,1285.74 2071.24,2421.62 2071.18,2421.71 2071.13,2421.8 2071.07,2421.89 2071.02,2421.98 2070.96,2422.07 2070.91,2422.16 2070.85,2422.25 2070.79,2422.34 934.913,1286.46 934.97,1286.37 935.025,1286.28 935.081,1286.19 935.136,1286.1 935.192,1286.01 935.247,1285.92 935.303,1285.83 "/>
     <polygon id="_489983232" class="fil1" points="848.013,1323.57 1983.89,2459.45 1982.37,2459.74 1980.85,2460.02 1979.34,2460.31 1977.86,2460.59 1976.4,2460.86 1974.98,2461.13 1973.6,2461.39 1972.26,2461.64 1970.98,2461.88 1969.76,2462.12 1968.6,2462.34 1967.52,2462.54 1966.52,2462.74 1965.6,2462.92 1964.78,2463.08 1964.06,2463.22 828.18,1327.34 828.902,1327.19 829.723,1327.03 830.637,1326.85 831.638,1326.66 832.72,1326.45 833.875,1326.23 835.098,1326 836.379,1325.76 837.716,1325.51 839.099,1325.25 840.523,1324.98 841.98,1324.7 843.464,1324.42 844.968,1324.14 846.487,1323.86 "/>
     <polygon id="_489983616" class="fil1" points="548.416,1300.3 1684.3,2436.18 1685.5,2437.39 1686.38,2438.92 1686.92,2440.81 1687.11,2443.1 551.228,1307.22 551.044,1304.93 550.5,1303.04 549.619,1301.51 "/>
     <polygon id="_489983400" class="fil1" points="705.553,1481.89 1841.43,2617.77 1839.48,2617.4 1837.52,2617.05 1835.57,2616.72 1833.63,2616.41 1831.7,2616.11 1829.77,2615.82 1827.84,2615.56 1825.92,2615.31 1824.01,2615.08 1822.1,2614.86 1820.2,2614.66 1818.3,2614.48 1816.41,2614.31 1814.52,2614.17 1812.64,2614.04 1810.76,2613.92 1808.89,2613.83 1807.03,2613.75 1805.17,2613.69 1803.31,2613.65 1801.46,2613.62 1799.61,2613.62 1797.76,2613.63 1795.93,2613.66 1794.09,2613.7 1792.26,2613.77 1790.43,2613.85 1788.61,2613.96 1786.79,2614.08 1784.98,2614.22 1783.17,2614.38 1781.36,2614.55 645.482,1478.67 647.288,1478.49 649.099,1478.33 650.913,1478.2 652.731,1478.07 654.553,1477.97 656.379,1477.89 658.209,1477.82 660.044,1477.77 661.883,1477.74 663.726,1477.73 665.574,1477.74 667.426,1477.76 669.284,1477.81 671.145,1477.87 673.012,1477.94 674.884,1478.04 676.76,1478.15 678.642,1478.28 680.528,1478.43 682.42,1478.6 684.317,1478.78 686.22,1478.98 688.127,1479.19 690.041,1479.43 691.959,1479.68 693.884,1479.94 695.814,1480.22 697.75,1480.52 699.691,1480.84 701.639,1481.17 703.594,1481.52 "/>
     <polygon id="_489983184" class="fil1" points="645.482,1478.67 1781.36,2614.55 1779.63,2614.74 1777.9,2614.95 1776.16,2615.17 1774.44,2615.42 1772.71,2615.68 1770.98,2615.96 1769.26,2616.25 1767.53,2616.57 1765.81,2616.9 1764.09,2617.26 1762.37,2617.63 1760.66,2618.02 1758.94,2618.43 1757.22,2618.85 1755.51,2619.3 1753.8,2619.77 1752.08,2620.25 1750.37,2620.75 1748.66,2621.28 1746.95,2621.82 1745.24,2622.38 1743.53,2622.96 1741.82,2623.56 1740.11,2624.18 1738.4,2624.82 1736.69,2625.49 1734.99,2626.16 1733.28,2626.86 1731.57,2627.59 1729.86,2628.32 1728.15,2629.09 1726.44,2629.87 590.559,1493.98 592.268,1493.2 593.978,1492.44 595.687,1491.7 597.395,1490.98 599.104,1490.28 600.813,1489.6 602.522,1488.94 604.23,1488.3 605.939,1487.68 607.649,1487.08 609.358,1486.5 611.069,1485.94 612.78,1485.4 614.491,1484.87 616.203,1484.37 617.915,1483.88 619.629,1483.42 621.343,1482.97 623.059,1482.54 624.775,1482.14 626.493,1481.75 628.212,1481.37 629.932,1481.02 631.653,1480.69 633.376,1480.37 635.1,1480.07 636.826,1479.8 638.554,1479.53 640.283,1479.29 642.015,1479.07 643.747,1478.86 "/>
     <polygon id="_489983448" class="fil1" points="590.559,1493.98 1726.44,2629.87 1725.92,2630.14 1725.33,2630.42 1724.68,2630.72 1723.96,2631.02 1723.18,2631.33 1722.34,2631.65 1721.45,2631.97 1720.5,2632.3 1719.49,2632.63 1718.44,2632.97 1717.34,2633.32 1716.19,2633.67 1715,2634.02 1713.76,2634.37 1712.49,2634.72 1711.18,2635.08 1709.84,2635.43 1708.47,2635.79 1707.06,2636.14 1705.63,2636.49 1704.17,2636.84 1702.69,2637.19 1701.19,2637.53 1699.67,2637.87 1698.13,2638.2 1696.58,2638.53 1695.02,2638.85 1693.45,2639.16 1691.87,2639.47 1690.28,2639.77 1688.7,2640.05 1687.11,2640.33 551.228,1504.45 552.815,1504.17 554.402,1503.88 555.987,1503.59 557.566,1503.28 559.138,1502.97 560.7,1502.64 562.251,1502.32 563.788,1501.98 565.308,1501.65 566.809,1501.3 568.29,1500.96 569.749,1500.61 571.18,1500.26 572.586,1499.9 573.961,1499.55 575.304,1499.19 576.612,1498.84 577.883,1498.49 579.116,1498.13 580.307,1497.78 581.455,1497.44 582.557,1497.09 583.61,1496.75 584.614,1496.42 585.565,1496.09 586.461,1495.76 587.3,1495.45 588.08,1495.14 588.798,1494.83 589.452,1494.54 590.039,1494.26 "/>
     <polygon id="_489983520" class="fil1" points="551.228,1504.45 1687.11,2640.33 1687.11,2709.55 551.228,1573.67 "/>
     <polygon id="_489983688" class="fil1" points="551.228,1573.67 1687.11,2709.55 1686.92,2711.85 1686.38,2713.79 1685.5,2715.4 1684.3,2716.71 1682.79,2717.75 1681,2718.54 1678.94,2719.12 1676.63,2719.51 1674.09,2719.75 1671.33,2719.86 1668.38,2719.88 1665.25,2719.82 1661.96,2719.73 1658.53,2719.63 1654.98,2719.55 1651.32,2719.51 515.441,1583.63 519.1,1583.66 522.652,1583.75 526.082,1583.85 529.37,1583.94 532.499,1584 535.45,1583.98 538.205,1583.87 540.746,1583.63 543.056,1583.24 545.116,1582.66 546.909,1581.87 548.416,1580.83 549.619,1579.52 550.5,1577.91 551.044,1575.97 "/>
     <polygon id="_489983016" class="fil1" points="515.441,1583.63 1651.32,2719.51 1647.66,2719.55 1644.11,2719.63 1640.68,2719.73 1637.39,2719.82 1634.26,2719.88 1631.31,2719.86 1628.56,2719.75 1626.02,2719.51 1623.71,2719.12 1621.65,2718.54 1619.85,2717.75 1618.35,2716.71 482.465,1580.83 483.972,1581.87 485.765,1582.66 487.825,1583.24 490.135,1583.63 492.677,1583.87 495.433,1583.98 498.383,1584 501.511,1583.94 504.799,1583.85 508.229,1583.75 511.781,1583.66 "/>
     <polygon id="_489983136" class="fil1" points="551.228,1307.22 1687.11,2443.1 1687.11,2461.5 551.228,1325.61 "/>
     <polygon id="_489983952" class="fil1" points="882.035,1511.13 2017.92,2647.01 2012.2,2646.22 2006.41,2645.41 2000.53,2644.57 1994.6,2643.7 1988.61,2642.81 1982.58,2641.9 1976.51,2640.98 1970.42,2640.03 1964.31,2639.07 1958.19,2638.1 1952.08,2637.12 1945.98,2636.13 1939.9,2635.14 1933.86,2634.14 1927.85,2633.14 1921.9,2632.14 1916.01,2631.14 1910.19,2630.14 1904.45,2629.15 1898.79,2628.17 1893.24,2627.2 1887.8,2626.24 1882.47,2625.29 1877.27,2624.36 1872.21,2623.45 1867.3,2622.56 1862.54,2621.7 1857.95,2620.85 1853.53,2620.04 1849.3,2619.25 1845.27,2618.49 1841.43,2617.77 705.553,1481.89 709.385,1482.61 713.421,1483.37 717.651,1484.16 722.066,1484.97 726.658,1485.81 731.416,1486.68 736.329,1487.57 741.39,1488.48 746.59,1489.41 751.915,1490.36 757.36,1491.32 762.912,1492.29 768.565,1493.27 774.307,1494.26 780.128,1495.25 786.02,1496.25 791.972,1497.26 797.976,1498.26 804.021,1499.26 810.099,1500.25 816.198,1501.24 822.31,1502.22 828.426,1503.19 834.536,1504.15 840.629,1505.09 846.698,1506.02 852.731,1506.93 858.719,1507.82 864.653,1508.68 870.524,1509.53 876.321,1510.34 "/>
     <polygon id="_489983856" class="fil1" points="934.913,1286.46 2070.79,2422.34 2070.08,2423.43 2069.34,2424.52 2068.56,2425.6 2067.75,2426.67 2066.91,2427.72 2066.04,2428.76 2065.14,2429.79 2064.2,2430.81 2063.22,2431.81 2062.22,2432.79 2061.18,2433.76 2060.11,2434.72 2059,2435.65 2057.86,2436.57 2056.68,2437.48 2055.47,2438.36 2054.22,2439.22 2052.94,2440.07 2051.62,2440.89 2050.27,2441.69 2048.88,2442.47 2047.46,2443.23 2046,2443.97 2044.5,2444.68 2042.97,2445.36 2041.4,2446.03 2039.79,2446.66 2038.15,2447.27 2036.46,2447.86 2034.74,2448.41 2032.98,2448.94 2031.19,2449.44 895.306,1313.56 897.102,1313.06 898.861,1312.53 900.582,1311.97 902.265,1311.39 903.91,1310.78 905.518,1310.14 907.088,1309.48 908.622,1308.79 910.119,1308.08 911.579,1307.35 913.003,1306.59 914.391,1305.81 915.744,1305.01 917.061,1304.18 918.342,1303.34 919.588,1302.48 920.799,1301.59 921.975,1300.69 923.117,1299.77 924.225,1298.83 925.298,1297.88 926.337,1296.91 927.343,1295.92 928.315,1294.92 929.254,1293.91 930.16,1292.88 931.033,1291.84 931.873,1290.78 932.681,1289.72 933.457,1288.64 934.201,1287.55 "/>
     <polygon id="_489983832" class="fil1" points="895.306,1313.56 2031.19,2449.44 2029.82,2449.8 2028.45,2450.16 2027.06,2450.51 2025.67,2450.85 2024.26,2451.2 2022.84,2451.54 2021.42,2451.87 2019.98,2452.2 2018.54,2452.53 2017.09,2452.86 2015.63,2453.18 2014.16,2453.5 2012.69,2453.82 2011.2,2454.13 2009.72,2454.44 2008.22,2454.75 2006.73,2455.06 2005.22,2455.36 2003.72,2455.66 2002.2,2455.96 2000.69,2456.26 1999.17,2456.56 1997.65,2456.85 1996.12,2457.14 1994.6,2457.44 1993.07,2457.73 1991.54,2458.02 1990.01,2458.3 1988.48,2458.59 1986.95,2458.88 1985.42,2459.17 1983.89,2459.45 848.013,1323.57 849.542,1323.28 851.071,1323 852.601,1322.71 854.131,1322.42 855.661,1322.13 857.189,1321.84 858.716,1321.55 860.242,1321.26 861.767,1320.97 863.288,1320.67 864.807,1320.38 866.323,1320.08 867.835,1319.78 869.342,1319.48 870.845,1319.17 872.343,1318.87 873.836,1318.56 875.323,1318.25 876.804,1317.93 878.278,1317.62 879.746,1317.3 881.206,1316.98 882.657,1316.65 884.102,1316.32 885.537,1315.99 886.962,1315.65 888.38,1315.31 889.787,1314.97 891.183,1314.62 892.568,1314.27 893.943,1313.92 "/>
     <polygon id="_489984000" class="fil1" points="1253.44,1450.12 2389.32,2586 2381.02,2589.1 2372.5,2592.12 2363.8,2595.06 2354.92,2597.91 2345.91,2600.68 2336.8,2603.37 2327.6,2605.98 2318.35,2608.5 2309.08,2610.94 2299.81,2613.29 2290.57,2615.56 2281.38,2617.75 2272.29,2619.85 2263.31,2621.87 2254.47,2623.8 2245.8,2625.64 2237.33,2627.4 2229.08,2629.07 2221.09,2630.66 2213.38,2632.16 2205.97,2633.57 2198.9,2634.9 2192.2,2636.14 2185.88,2637.29 2179.99,2638.35 2174.54,2639.32 2169.57,2640.21 2165.1,2641.01 2161.16,2641.71 2157.78,2642.33 2154.98,2642.86 2152.79,2643.3 1016.91,1507.42 1019.1,1506.98 1021.89,1506.45 1025.28,1505.83 1029.22,1505.12 1033.69,1504.33 1038.66,1503.44 1044.11,1502.47 1050,1501.41 1056.32,1500.26 1063.02,1499.02 1070.09,1497.69 1077.5,1496.28 1085.21,1494.78 1093.2,1493.19 1101.45,1491.52 1109.92,1489.76 1118.59,1487.91 1127.43,1485.98 1136.41,1483.97 1145.5,1481.87 1154.69,1479.68 1163.92,1477.41 1173.19,1475.06 1182.47,1472.62 1191.72,1470.09 1200.91,1467.49 1210.03,1464.8 1219.04,1462.03 1227.91,1459.17 1236.62,1456.24 1245.14,1453.22 "/>
     <polygon id="_489951864" class="fil1" points="1336.93,1397.34 2472.81,2533.22 2472.1,2535.24 2471.24,2537.23 2470.23,2539.2 2469.07,2541.14 2467.77,2543.06 2466.32,2544.96 2464.74,2546.83 2463.03,2548.68 2461.18,2550.51 2459.21,2552.32 2457.11,2554.1 2454.89,2555.86 2452.55,2557.59 2450.1,2559.31 2447.53,2561 2444.86,2562.67 2442.07,2564.31 2439.18,2565.94 2436.2,2567.54 2433.11,2569.12 2429.93,2570.68 2426.66,2572.21 2423.31,2573.73 2419.86,2575.22 2416.34,2576.7 2412.73,2578.15 2409.05,2579.58 2405.3,2580.98 2401.47,2582.37 2397.58,2583.74 2393.63,2585.08 2389.61,2586.41 1253.73,1450.52 1257.75,1449.2 1261.7,1447.85 1265.59,1446.49 1269.42,1445.1 1273.17,1443.69 1276.85,1442.26 1280.45,1440.81 1283.98,1439.34 1287.42,1437.85 1290.78,1436.33 1294.05,1434.8 1297.23,1433.24 1300.32,1431.66 1303.3,1430.06 1306.19,1428.43 1308.97,1426.78 1311.65,1425.12 1314.22,1423.42 1316.67,1421.71 1319.01,1419.97 1321.23,1418.21 1323.33,1416.43 1325.3,1414.63 1327.15,1412.8 1328.86,1410.95 1330.44,1409.08 1331.88,1407.18 1333.19,1405.26 1334.35,1403.31 1335.36,1401.35 1336.22,1399.35 "/>
     <polygon id="_489951648" class="fil1" points="828.18,1327.34 1964.06,2463.22 1962.07,2463.61 1960.1,2463.98 1958.15,2464.32 1956.22,2464.64 1954.31,2464.95 1952.44,2465.23 1950.6,2465.49 1948.79,2465.74 1947.02,2465.97 1945.29,2466.19 1943.6,2466.39 1941.95,2466.58 1940.35,2466.75 1938.81,2466.92 1937.31,2467.07 1935.88,2467.22 1934.5,2467.36 1933.18,2467.49 1931.93,2467.62 1930.75,2467.74 1929.63,2467.85 1928.59,2467.97 1927.62,2468.08 1926.73,2468.19 1925.92,2468.31 1925.2,2468.42 1924.56,2468.54 1924.01,2468.66 1923.56,2468.78 1923.19,2468.91 1922.93,2469.05 1922.76,2469.19 786.881,1333.31 787.046,1333.17 787.312,1333.03 787.674,1332.9 788.131,1332.77 788.681,1332.65 789.32,1332.54 790.044,1332.42 790.851,1332.31 791.741,1332.2 792.708,1332.09 793.75,1331.97 794.865,1331.85 796.051,1331.73 797.303,1331.61 798.618,1331.48 799.997,1331.34 801.433,1331.19 802.926,1331.04 804.472,1330.87 806.069,1330.69 807.714,1330.51 809.404,1330.3 811.136,1330.09 812.907,1329.86 814.717,1329.61 816.559,1329.35 818.434,1329.06 820.336,1328.76 822.265,1328.44 824.218,1328.1 826.19,1327.73 "/>
     <polygon id="_489951696" class="fil1" points="786.881,1333.31 1922.76,2469.19 1922.82,2469.48 1922.87,2469.76 1922.92,2470.05 1922.97,2470.33 1923.01,2470.62 1923.05,2470.91 1923.09,2471.2 1923.12,2471.49 787.241,1335.61 787.208,1335.32 787.171,1335.03 787.131,1334.74 787.087,1334.45 787.041,1334.16 786.99,1333.88 786.937,1333.59 "/>
     <polygon id="_489951936" class="fil1" points="1016.91,1507.42 2152.79,2643.3 2147.14,2644.49 2141.85,2645.62 2136.9,2646.67 2132.27,2647.66 2127.92,2648.57 2123.82,2649.42 2119.96,2650.19 2116.3,2650.9 2112.81,2651.53 2109.47,2652.1 2106.25,2652.59 2103.13,2653.02 2100.07,2653.37 2097.05,2653.66 2094.04,2653.88 2091.01,2654.03 2087.94,2654.1 2084.79,2654.11 2081.55,2654.05 2078.18,2653.92 2074.66,2653.73 2070.96,2653.46 2067.05,2653.12 2062.9,2652.72 2058.48,2652.25 2053.78,2651.7 2048.76,2651.09 2043.39,2650.41 2037.65,2649.66 2031.51,2648.85 2024.94,2647.96 2017.92,2647.01 882.035,1511.13 889.06,1512.08 895.629,1512.96 901.77,1513.78 907.51,1514.53 912.878,1515.21 917.899,1515.82 922.602,1516.36 927.015,1516.84 931.164,1517.24 935.076,1517.58 938.78,1517.84 942.303,1518.04 945.672,1518.17 948.914,1518.23 952.058,1518.22 955.129,1518.14 958.157,1518 961.168,1517.78 964.189,1517.49 967.249,1517.14 970.373,1516.71 973.592,1516.21 976.929,1515.65 980.416,1515.01 984.078,1514.31 987.941,1513.54 992.035,1512.69 996.386,1511.78 1001.02,1510.79 1005.97,1509.74 1011.26,1508.61 "/>
     <polygon id="_489951624" class="fil1" points="1386.81,1352.7 2522.7,2488.59 2522.65,2490.68 2522.52,2492.71 2522.31,2494.67 2522.03,2496.55 2521.67,2498.33 2521.24,2500.02 2520.75,2501.59 2520.2,2503.04 2519.59,2504.36 2518.93,2505.54 2518.23,2506.56 2517.48,2507.43 2516.7,2508.11 2515.88,2508.62 2515.04,2508.93 2514.16,2509.03 1378.28,1373.15 1379.15,1373.04 1380,1372.73 1380.82,1372.23 1381.6,1371.54 1382.35,1370.68 1383.05,1369.66 1383.71,1368.48 1384.32,1367.16 1384.87,1365.71 1385.36,1364.14 1385.78,1362.45 1386.14,1360.66 1386.43,1358.78 1386.64,1356.83 1386.77,1354.8 "/>
     <polygon id="_489951672" class="fil1" points="1568.35,463.999 2704.23,1599.88 2697.67,1616.41 2691.11,1632.63 2684.56,1648.54 2678,1664.14 2671.45,1679.44 2664.89,1694.44 2658.34,1709.12 2651.79,1723.5 2645.23,1737.58 2638.68,1751.34 2632.13,1764.8 2625.58,1777.96 2619.04,1790.8 2612.49,1803.34 2605.94,1815.58 2599.4,1827.51 2592.85,1839.13 2586.31,1850.44 2579.77,1861.45 2573.23,1872.15 2566.69,1882.54 2560.16,1892.63 2553.62,1902.41 2547.09,1911.89 2540.56,1921.06 2534.03,1929.92 2527.5,1938.47 2520.97,1946.72 2514.45,1954.66 2507.92,1962.3 2501.4,1969.63 2494.88,1976.65 1359,840.766 1365.52,833.744 1372.04,826.416 1378.56,818.781 1385.09,810.839 1391.62,802.59 1398.14,794.036 1404.67,785.174 1411.21,776.006 1417.74,766.531 1424.27,756.749 1430.81,746.662 1437.35,736.267 1443.89,725.566 1450.43,714.558 1456.97,703.244 1463.52,691.623 1470.06,679.695 1476.61,667.462 1483.15,654.922 1489.7,642.074 1496.25,628.921 1502.8,615.46 1509.35,601.694 1515.9,587.62 1522.46,573.24 1529.01,558.554 1535.57,543.561 1542.12,528.261 1548.68,512.656 1555.23,496.744 1561.79,480.525 "/>
     <polygon id="_489952032" class="fil1" points="1359,840.766 2494.88,1976.65 2492.52,1979.12 2490.16,1981.54 2487.81,1983.93 2485.45,1986.27 2483.09,1988.57 2480.74,1990.83 2478.39,1993.04 2476.04,1995.22 2473.69,1997.35 2471.34,1999.44 2469,2001.49 2466.65,2003.49 2464.31,2005.46 2461.97,2007.38 2459.63,2009.26 2457.29,2011.09 2454.95,2012.89 2452.62,2014.64 2450.29,2016.35 2447.95,2018.02 2445.62,2019.65 2443.3,2021.24 2440.97,2022.78 2438.64,2024.28 2436.32,2025.74 2434,2027.16 2431.68,2028.54 2429.36,2029.87 2427.04,2031.16 2424.72,2032.41 2422.41,2033.62 2420.1,2034.78 1284.22,898.899 1286.53,897.733 1288.84,896.526 1291.16,895.277 1293.48,893.985 1295.8,892.653 1298.12,891.277 1300.44,889.86 1302.76,888.4 1305.09,886.899 1307.41,885.355 1309.74,883.77 1312.07,882.142 1314.4,880.472 1316.74,878.761 1319.07,877.008 1321.41,875.212 1323.75,873.374 1326.09,871.495 1328.43,869.573 1330.77,867.609 1333.11,865.603 1335.46,863.555 1337.81,861.466 1340.16,859.334 1342.51,857.16 1344.86,854.944 1347.21,852.686 1349.57,850.386 1351.93,848.044 1354.28,845.66 1356.64,843.235 "/>
     <polygon id="_489952896" class="fil1" points="1381.6,1333.87 2517.48,2469.75 2518.23,2470.61 2518.93,2471.63 2519.59,2472.81 2520.2,2474.13 2520.75,2475.58 2521.24,2477.16 2521.67,2478.84 2522.03,2480.63 2522.31,2482.51 2522.52,2484.47 2522.65,2486.5 2522.7,2488.59 1386.81,1352.7 1386.77,1350.61 1386.64,1348.58 1386.43,1346.63 1386.14,1344.75 1385.78,1342.96 1385.36,1341.28 1384.87,1339.7 1384.32,1338.25 1383.71,1336.93 1383.05,1335.75 1382.35,1334.73 "/>
    </g>
    <path id="_517130872" class="fil1" d="M1247.85 1305.4c41.1969,2.69646 82.3146,11.9847 130.434,26.8583 4.7126,0 8.53347,9.15355 8.53347,20.4437 0,11.2913 -3.82087,20.4449 -8.53347,20.4449 -20.4142,-6.30945 -39.6272,-11.5784 -58.1268,-15.7559 1.77402,1.43386 3.37441,3.03544 4.79646,4.82008 9.39568,11.7945 11.25,22.9217 7.34764,33.365 1.5815,0.530315 3.12756,1.11732 4.63465,1.75984 -6.75827,21.6248 -40.0654,39.1689 -83.2005,53.1851 -0.0968505,-0.135827 -0.193701,-0.271654 -0.28937,-0.407481 -87.2741,33.5091 -216.607,53.1059 -236.53,57.3 -62.3764,13.1256 -57.4217,14.2441 -134.878,3.71103 -60.4748,-8.22402 -136.739,-21.6933 -176.482,-29.2418 -20.9386,-3.97441 -40.8237,-5.20867 -60.0709,-3.21378 -18.5173,1.91929 -36.6862,6.87638 -54.9237,15.3118 -5.16496,2.86654 -22.4055,7.54134 -39.3307,10.4681l0 69.2138c0,13.2898 -16.0228,9.96497 -35.7874,9.96497 -19.7634,0 -35.7874,3.32481 -35.7874,-9.96497l0 -266.45c0,-13.2886 16.024,-8.39646 35.7874,-8.39646 19.7646,0 35.7874,-4.89213 35.7874,8.39646l0 18.398c28.2213,-23.6374 51.8752,-58.0607 95.7166,-78.5386 48.4914,-14.6421 104.518,-21.7169 128.517,-21.0059 26.4697,0.783071 53.0941,-4.12205 75.0697,-8.17087 22.8969,-4.21772 41.5524,-7.65591 56.4603,-4.27441 3.15827,0.71693 6.15473,1.74095 8.96812,3.03425 13.8768,4.10906 23.5606,14.4201 27.8386,28.1268 4.51654,14.4709 1.94646,29.328 -8.44135,40.9536 -0.145276,0.239764 -0.294095,0.478347 -0.444095,0.71693 -7.42678,11.7579 -20.237,21.9331 -39.6071,27.1016 -14.4756,3.86339 -30.9945,6.95906 -47.2926,10.0146 -8.14489,1.52599 -16.2662,3.04961 -19.8331,3.76654 -21.3118,4.28977 -40.0784,4.38544 -41.2996,5.97166 0.155906,0.754725 0.276378,1.52008 0.360236,2.29725 2.20866,1.46811 26.7697,9.57166 57.1347,19.1244 92.8867,29.2229 133.267,20.8547 214.755,11.5677 -1.3441,-3.61299 -2.16024,-8.3752 -2.16024,-13.5945 0,-11.2902 3.82087,-20.4437 8.53347,-20.4437 49.7162,-15.3662 91.3607,-24.0166 130.447,-26.739l-36.378 -406.622c-24.6614,-12.2043 -49.5969,-31.5827 -74.791,-58.1339 -69.5186,-73.265 -139.397,-198.86 -209.342,-376.767l692.907 0c-69.9461,177.907 -139.824,303.502 -209.343,376.767 -25.1929,26.55 -50.1284,45.9284 -74.7875,58.1327l-36.3685 406.504z"/>
   </g>
  </g>
  <path class="fil2" d="M1024 -0.0011811c565.541,0 1024,458.461 1024,1024 0,565.541 -458.461,1024 -1024,1024 -565.541,0 -1024,-458.461 -1024,-1024 0,-565.541 458.461,-1024 1024,-1024z"/>
  <path class="fil3" d="M875.44 463.999c69.9449,177.907 139.823,303.502 209.342,376.766 46.6229,49.1351 92.3599,73.7056 137.111,73.7056 44.7508,0 90.4879,-24.5705 137.111,-73.7056 69.5197,-73.2638 139.397,-198.859 209.343,-376.766l-692.907 0z"/>
  <path class="fil3" d="M1378.28 1332.26c4.7126,0 8.53347,9.15355 8.53347,20.4437 0,11.2913 -3.82087,20.4449 -8.53347,20.4449 -113.476,-35.074 -189.869,-37.989 -312.777,0 -4.7126,0 -8.53347,-9.15355 -8.53347,-20.4449 0,-11.2902 3.82087,-20.4437 8.53347,-20.4437 126.206,-39.0083 200.395,-34.7362 312.777,0z"/>
  <path class="fil4" d="M1282.66 1392.24c4.19528,1.10079 6.9378,2.68229 4.69134,-0.138189 -0.530315,-0.666142 -2.02323,-0.386221 -4.69134,0.138189z"/>
  <polygon class="fil5" points="580.106,1309.63 579.408,1309.04 580.102,1309.63 "/>
  <path class="fil6" d="M1100.4 1362.04c54.4642,-4.90276 112.371,-10.1185 161.763,-15.848 1.32284,-0.225591 2.68229,-0.343701 4.07008,-0.343701 27.717,0 48.1607,3.10748 58.7174,16.3606 69.5882,87.3579 -274.475,138.137 -308.038,145.202 -62.3764,13.1256 -57.4217,14.2441 -134.88,3.70985 -60.4748,-8.22284 -136.738,-21.6921 -176.48,-29.2406 -20.9386,-3.97441 -40.8237,-5.20867 -60.0697,-3.21378 -18.5185,1.92047 -36.6886,6.87638 -54.9248,15.3118 -11.0705,6.14528 -77.6268,20.5996 -77.6268,8.32205l-5.12835 -153.516c54.3685,-12.7937 75.4536,-71.967 139.141,-101.714 48.4914,-14.6421 104.518,-21.7169 128.517,-21.0059 26.4697,0.783071 53.0941,-4.12205 75.0709,-8.17087 22.8957,-4.21772 41.5512,-7.65709 56.4591,-4.27441 12.6496,2.87126 22.689,10.6665 28.8969,20.9504 4.45748,7.3819 6.90945,16.1528 6.8504,25.291 -0.0578741,8.96339 -2.50748,18.1701 -7.82599,26.5902 -7.42678,11.7579 -20.237,21.9331 -39.6071,27.1016 -14.4756,3.86221 -30.9945,6.95906 -47.2926,10.0146 -8.14489,1.52599 -16.2662,3.04961 -19.8331,3.76772 -21.3106,4.28859 -40.0784,4.38544 -41.2996,5.97166 0.155906,0.752363 0.276378,1.5189 0.360236,2.29606 2.20866,1.46929 26.7697,9.57166 57.1347,19.1244 107.307,33.7595 144.54,17.3504 256.025,7.31339z"/>
  <path class="fil7" d="M1336.93 1397.34c-6.75945,21.6248 -40.0654,39.1689 -83.2005,53.1851 -12.6095,-17.6575 -15.3414,-33.9544 16.4587,-48.9083 25.115,-11.811 48.6697,-11.9728 66.7418,-4.27677z"/>
  <path class="fil8" d="M551.228 1307.22c0,-13.2886 -16.0228,-8.39646 -35.7874,-8.39646 -19.7634,0 -35.7874,-4.89213 -35.7874,8.39646l0 266.451c0,13.2886 16.024,9.96379 35.7874,9.96379 19.7646,0 35.7874,3.32481 35.7874,-9.96379l0 -266.451z"/>
  <path class="fil9" d="M943.798 1244.79c7.28268,23.3303 -3.85748,47.6634 -36.4784,57.8445 -32.6221,10.1823 -42.5398,-7.47756 -49.8225,-30.8079 -7.2815,-23.3315 -9.17009,-43.4977 23.452,-53.6788 32.6209,-10.1823 55.5674,3.31063 62.8489,26.6421z"/>
  <polygon class="fil5" points="585.791,1347.6 585.093,1347 585.787,1347.6 "/>
  <polygon class="fil5" points="576.004,1317.86 575.258,1317.23 576,1317.86 "/>
  <path class="fil10" d="M1284.49 895.803c0,-23.1603 -28.0276,-41.9351 -62.5973,-41.9351 -34.5697,0 -62.5985,18.7748 -62.5985,41.9351l36.6555 409.719c0,9.59883 11.615,17.3799 25.9429,17.3799 14.3268,0 25.9429,-7.78111 25.9429,-17.3799l36.6544 -409.719z"/>
 </g>
</svg>
