<?xml version="1.0" encoding="UTF-8" standalone="no"?>
<!-- Created with Inkscape (http://www.inkscape.org/) -->

<svg
   width="512"
   height="512"
   viewBox="0 0 512 512"
   version="1.1"
   id="svg1"
   xmlns="http://www.w3.org/2000/svg"
   xmlns:svg="http://www.w3.org/2000/svg">
  <defs
     id="defs1" />
  <g
     id="layer1">
    <path
       style="display:inline;fill:#c12333;fill-opacity:1;stroke-width:6"
       d="M 259.86347,1.2353591 C 173.94914,-0.49156086 93.280397,56.599615 73.886927,147.02835 c -15.79044,73.62819 -12.31488,82.29603 105.884763,264.48045 39.25182,60.49992 73.6884,109.99818 76.52928,109.99218 4.8393,-0.009 155.42961,-237.4377 176.98242,-279.04101 6.06924,-11.71545 8.68443,-40.02615 6.79104,-73.53516 C 436.18709,100.12836 407.61569,56.221315 345.45137,23.512699 317.72192,8.9224694 288.50159,1.8109991 259.86347,1.2353591 Z"
       id="path34" />
    <path
       style="display:inline;mix-blend-mode:normal;fill:#f9f9f9;fill-opacity:1;stroke-width:6"
       d="m 257.67794,117.63771 c 44.18094,1.27617 78.72846,51.64281 58.82226,103.51758 -2.73318,7.1226 -15.15528,18.21318 -27.60351,24.6504 -33.56895,17.35917 -53.98419,14.38305 -80.04492,-11.67774 -37.07193,-37.07187 -29.52279,-84.75618 17.25,-108.94335 10.67142,-5.51844 21.38055,-7.8414 31.57617,-7.54689 z"
       id="path36" />
  </g>
</svg>
