<?xml version="1.0" encoding="UTF-8" standalone="no"?>
<!-- Created with Inkscape (http://www.inkscape.org/) -->

<svg
   version="1.1"
   id="svg1"
   width="794.66669"
   height="1122.6667"
   viewBox="0 0 794.66669 1122.6667"
   sodipodi:docname="Artboard 1 (2).svg"
   inkscape:version="1.3.2 (091e20ef0f, 2023-11-25)"
   xmlns:inkscape="http://www.inkscape.org/namespaces/inkscape"
   xmlns:sodipodi="http://sodipodi.sourceforge.net/DTD/sodipodi-0.dtd"
   xmlns="http://www.w3.org/2000/svg"
   xmlns:svg="http://www.w3.org/2000/svg">
  <sodipodi:namedview
     id="namedview1"
     pagecolor="#ffffff"
     bordercolor="#000000"
     borderopacity="0.25"
     inkscape:showpageshadow="2"
     inkscape:pageopacity="0.0"
     inkscape:pagecheckerboard="0"
     inkscape:deskcolor="#d1d1d1"
     inkscape:zoom="0.7170427"
     inkscape:cx="396.76856"
     inkscape:cy="561.33337"
     inkscape:window-width="1920"
     inkscape:window-height="1011"
     inkscape:window-x="0"
     inkscape:window-y="0"
     inkscape:window-maximized="1"
     inkscape:current-layer="svg1" />
  <defs
     id="defs1" />
  <g
     id="g1">
    <path
       style="fill:#c12333;fill-opacity:1"
       d="m 390.68559,673.25261 c 2.25498,-3.6108 0.37974,-10.0545 -2.57291,-8.84102 -3.96198,1.6283 -6.27751,1.37247 -6.27751,-0.69355 0,-3.07986 8.76429,-3.49381 10.94115,-0.51678 2.16632,2.96262 2.23354,8.80876 0.12552,10.91678 -2.46754,2.46754 -3.9389,1.89298 -2.21625,-0.86543 z m -4.85042,-9.53457 c 0.45323,-0.73333 0.18864,-1.33333 -0.58798,-1.33333 -0.77661,0 -1.41202,0.6 -1.41202,1.33333 0,0.73333 0.26459,1.33333 0.58798,1.33333 0.32339,0 0.9588,-0.6 1.41202,-1.33333 z m -68.44492,7.20525 c -4.5964,-3.21945 -3.50647,-9.59067 2.30876,-13.49602 5.96956,-4.00899 16.13616,-3.98793 16.13616,0.0334 0,0.97499 -0.52957,0.92778 -1.6,-0.14265 -2.65793,-2.65793 -8.61627,-1.80683 -12.96437,1.85186 -4.25668,3.58176 -5.30073,8.14971 -2.5023,10.94814 2.50128,2.50128 11.90853,1.88968 16.79933,-1.09219 4.92182,-3.00077 4.59076,-5.22961 -0.81135,-5.46248 -2.44578,-0.10543 -2.81161,-0.35525 -1.14918,-0.78474 3.71558,-0.95994 8.89454,0.75058 8.89454,2.93771 0,2.93257 -9.79334,7.33503 -16.31688,7.33503 -3.16604,0 -7.12366,-0.95764 -8.79471,-2.12808 z m 29.77825,-3.20525 c -1.23107,-1.99192 0.48184,-4 3.41203,-4 1.42338,0 2.58797,0.6 2.58797,1.33333 0,0.73334 -1.05,1.34252 -2.33333,1.35375 -1.99406,0.0175 -2.04253,0.20835 -0.33333,1.31292 1.72358,1.11386 1.68839,1.29532 -0.25465,1.31292 -1.24005,0.0112 -2.62546,-0.57959 -3.07869,-1.31292 z m 11.33334,-2.66667 c -1.24386,-2.32417 -1.01399,-2.66666 1.78983,-2.66666 3.34692,0 6.83688,2.92884 5.30971,4.45601 -1.60982,1.60982 -3.02565,0.90285 -2.24838,-1.12268 0.49824,-1.29838 -0.0342,-2 -1.51783,-2 -1.48359,0 -2.01606,0.70162 -1.51783,2 1.11784,2.91303 -0.14859,2.44799 -1.8155,-0.66667 z m 11.55555,1.77778 c -1.47932,-1.47932 -0.99762,-3.99586 0.77778,-4.06341 0.91667,-0.0349 2.79133,-0.52772 4.16593,-1.09521 2.40707,-0.99375 2.41371,-0.90125 0.17998,2.50785 -2.36831,3.61451 -3.54908,4.22538 -5.12369,2.65077 z m 28.50556,-2.99692 c -0.81906,-1.53044 -0.93178,-2.78086 -0.25068,-2.78086 1.37035,0 3.26218,4.03851 2.32898,4.9717 -0.32451,0.32452 -1.25975,-0.66136 -2.0783,-2.19084 z m 7.32916,-1.35539 c -0.42191,-0.68266 -0.15732,-1.61807 0.58798,-2.07869 0.74529,-0.46062 1.35508,-0.16667 1.35508,0.65322 0,0.81989 0.60979,1.11385 1.35508,0.65323 0.7453,-0.46062 1.00989,-1.39603 0.58798,-2.07869 -1.12218,-1.81574 2.58048,-1.51766 4.45694,0.3588 2.14903,2.14902 2.05255,4.43543 -0.11138,2.63953 -1.0849,-0.90039 -2.42715,-0.96763 -3.66667,-0.18368 -2.49426,1.57753 -3.607,1.58637 -4.56501,0.0363 z m -7.89533,-20.7588 c 0.4757,-2.2 1.39219,-4.9 2.03664,-6 0.74979,-1.27982 0.86027,-0.55964 0.30681,2 -0.4757,2.2 -1.39219,4.9 -2.03664,6 -0.74979,1.27982 -0.86027,0.55964 -0.30681,-2 z M 360.2189,624.05137 c -19.69996,-30.3641 -20.27846,-31.80916 -17.64672,-44.08054 4.30967,-20.09529 26.77417,-30.31297 45.26049,-20.58613 10.36073,5.45144 15.12262,12.76929 15.77051,24.23538 0.31557,5.58484 -0.12015,10.3037 -1.13169,12.25628 -3.59214,6.93389 -28.69065,46.50561 -29.4972,46.50693 -0.47348,7.8e-4 -6.21341,-8.24859 -12.75539,-18.33192 z m 18.18758,-27.61736 c 2.07471,-1.07287 4.14492,-2.92195 4.60045,-4.10905 4.08333,-10.64099 -5.57987,-20.90042 -15.0656,-15.99516 -7.79547,4.0312 -9.05405,11.97881 -2.87539,18.15746 4.34346,4.34347 7.74571,4.83995 13.34054,1.94675 z m 36.65574,14.95069 c 2.8018,-3.48333 5.36276,-6.33333 5.69103,-6.33333 1.05573,0 -4.52891,7.2455 -7.70774,10 -1.6926,1.46667 -0.78508,-0.18333 2.01671,-3.66667 z m 25.9568,-26 c 0.70272,-1.28333 4.13748,-5.03333 7.6328,-8.33333 l 6.35513,-6 -7.05115,8.33333 c -7.11478,8.40854 -9.28215,10.28322 -6.93678,6 z m 21.7684,-44.33334 c 0,-10.25295 0.12097,-10.79314 1.26901,-5.66666 0.80312,3.58629 0.80312,7.74704 0,11.33333 -1.14804,5.12648 -1.26901,4.58629 -1.26901,-5.66667 z m -16.83477,-34.14183 c -4.33538,-3.95533 -7.33538,-7.18488 -6.66666,-7.17679 1.72114,0.0208 16.02352,12.90427 15.21585,13.70629 -0.36667,0.36411 -4.2138,-2.57417 -8.54919,-6.5295 z M 306.50184,495.91627 c 1.1,-0.64444 3.8,-1.56093 6,-2.03663 2.55964,-0.55347 3.27982,-0.44299 2,0.30681 -1.1,0.64444 -3.8,1.56093 -6,2.03663 -2.55964,0.55347 -3.27982,0.44299 -2,-0.30681 z m 109.33333,-8.33594 c -2.56666,-1.48092 -3.46666,-2.2877 -2,-1.79284 1.46667,0.49486 3.71667,1.20165 5,1.57065 1.28334,0.369 2.33334,1.20092 2.33334,1.84873 0,1.49785 0.17331,1.5507 -5.33334,-1.62654 z m -75.33333,-10.64997 c 4.4,-4.79537 8.21429,-8.18701 8.47621,-7.53696 0.5947,1.47596 -4.16046,6.63512 -11.14288,12.08958 -4.51255,3.52507 -4.10216,2.82444 2.66667,-4.55262 z m 26,1.45433 -8.66667,-0.87307 10,-0.20971 c 5.5,-0.11535 10.9,0.37191 12,1.08278 2.25755,1.45894 1.14906,1.45894 -13.33333,0 z m -34.6592,-5.53381 c -4.02923,-1.38893 -8.52923,-3.81653 -10,-5.39467 l -2.67414,-2.86935 3.99502,2.47813 c 2.19726,1.36298 7.23204,3.47968 11.18839,4.7038 3.95635,1.22412 6.65859,2.53656 6.00498,2.91654 -0.65361,0.37998 -4.48503,-0.44552 -8.51425,-1.83445 z m -18.67414,-27.0292 c 0,-1.043 1.95,-4.4313 4.33334,-7.52957 4.37901,-5.69259 10.34043,-10.54456 10.3249,-8.40338 -0.005,0.63944 -1.83331,2.20118 -4.06372,3.47051 -2.43909,1.38811 -5.11754,4.70928 -6.72063,8.33334 -2.75084,6.21874 -3.87389,7.41577 -3.87389,4.1291 z m 40.23853,-2.61276 c -0.88346,-2.44314 -2.79854,-5.52106 -4.25574,-6.83981 -1.4572,-1.31874 -2.64945,-3.00932 -2.64945,-3.75682 0,-2.73194 6.6331,4.96399 8.09419,9.39114 1.95893,5.93563 0.90707,7.00208 -1.189,1.20549 z"
       id="path1" />
  </g>
</svg>
