<?xml version="1.0" encoding="UTF-8" standalone="no"?>
<!-- Created with Inkscape (http://www.inkscape.org/) -->

<svg
   width="297mm"
   height="210mm"
   viewBox="0 0 297 210"
   version="1.1"
   id="svg1"
   xmlns="http://www.w3.org/2000/svg"
   xmlns:svg="http://www.w3.org/2000/svg">
  <defs
     id="defs1" />
  <g
     id="layer2">
    <path
       style="display:inline;fill:#c12333;fill-opacity:1;stroke-width:1.5875"
       d="m 67.154251,48.49184 c -22.7315,-0.456914 -44.0751,14.64846 -49.20629,38.574396 -4.17789,19.480804 -3.25831,21.774164 28.01534,69.977114 10.38538,16.00727 19.49672,29.10369 20.24837,29.1021 1.2804,-0.002 41.124089,-62.82206 46.826599,-73.82959 1.60582,-3.09971 2.29776,-10.59025 1.7968,-19.456184 C 113.80654,74.65728 106.24703,63.040208 89.799385,54.386053 82.462631,50.525722 74.731421,48.644145 67.154251,48.49184 Z"
       id="path34" />
    <path
       style="display:inline;mix-blend-mode:normal;fill:#f9f9f9;fill-opacity:1;stroke-width:1.5875"
       d="m 67.026339,74.618894 c 11.689474,0.33765 20.83012,13.663745 15.5633,27.388876 -0.723144,1.88453 -4.009806,4.81891 -7.303388,6.52209 -8.881729,4.59295 -14.283229,3.80551 -21.17843,-3.08974 -9.808579,-9.808573 -7.811202,-22.424971 4.564046,-28.824455 2.823462,-1.460084 5.656897,-2.074688 8.354472,-1.996771 z"
       id="path36" />
    <text
       xml:space="preserve"
       style="font-style:normal;font-variant:normal;font-weight:normal;font-stretch:normal;font-size:32.4556px;font-family:'Droid Sans';-inkscape-font-specification:'Droid Sans';display:inline;fill:#f9f9f9;stroke-width:0.264583"
       x="124.16266"
       y="73.38961"
       id="text1"><tspan
         id="tspan1"
         style="font-style:normal;font-variant:normal;font-weight:bold;font-stretch:normal;font-size:32.4556px;font-family:Volkhov;-inkscape-font-specification:'Volkhov Bold';fill:#000000;stroke-width:0.264583"
         x="124.16266"
         y="73.38961">The</tspan><tspan
         style="font-style:normal;font-variant:normal;font-weight:bold;font-stretch:normal;font-size:32.4556px;font-family:Volkhov;-inkscape-font-specification:'Volkhov Bold';fill:#000000;stroke-width:0.264583"
         x="124.16266"
         y="114.22966"
         id="tspan2">Road Less</tspan><tspan
         style="font-style:normal;font-variant:normal;font-weight:bold;font-stretch:normal;font-size:32.4556px;font-family:Volkhov;-inkscape-font-specification:'Volkhov Bold';fill:#000000;stroke-width:0.264583"
         x="124.16266"
         y="155.0697"
         id="tspan3">Travelled</tspan><tspan
         style="font-style:normal;font-variant:normal;font-weight:bold;font-stretch:normal;font-size:32.4556px;font-family:Volkhov;-inkscape-font-specification:'Volkhov Bold';fill:#000000;stroke-width:0.264583"
         x="124.16266"
         y="195.90974"
         id="tspan4">Tours</tspan></text>
  </g>
  <g
     id="layer1">
    <path
       style="fill:#c12333;fill-opacity:1;stroke-width:1.05833"
       d="m 33.53657,-4.3562675 c 4.656656,-5.07512 8.693416,-8.6646005 8.970616,-7.9766405 0.6294,1.562081 -4.40312,7.0221605 -11.792832,12.79480051 C 25.938618,4.1926125 26.372938,3.4510925 33.53657,-4.3562675 Z"
       id="path18" />
    <path
       style="fill:#c12333;fill-opacity:1;stroke-width:1.05833"
       d="m 113.26429,6.9149325 c -2.71636,-1.56732 -3.66888,-2.42116 -2.11664,-1.89744 1.5522,0.52376 3.93348,1.27176 5.29164,1.66228 1.3582,0.3904 2.46948,1.271 2.46948,1.9565998 0,1.5851997 0.1836,1.6411597 -5.64448,-1.7214398 z"
       id="path17" />
    <path
       style="fill:#c12333;fill-opacity:1;stroke-width:1.05833"
       d="m -2.4465459,15.737132 c 1.16416,-0.68204 4.021616,-1.65196 6.349964,-2.15544 2.7089479,-0.58576 3.4711079,-0.4688 2.1166279,0.3248 -1.164148,0.68204 -4.0216159,1.652 -6.34996386,2.15544 -2.70889604,0.58576 -3.47109604,0.46884 -2.11662804,-0.3248 z"
       id="path16" />
    <path
       style="fill:#c12333;fill-opacity:1;stroke-width:1.05833"
       d="m 145.13865,27.371652 c -4.58828,-4.18604 -7.76328,-7.604 -7.05556,-7.5954 1.82156,0.02 16.95824,13.657 16.10344,14.5058 -0.388,0.3852 -4.4596,-2.72432 -9.04788,-6.9104 z"
       id="path15" />
    <path
       style="fill:#c12333;fill-opacity:1;stroke-width:1.05833"
       d="m 162.95545,63.505092 c 0,-10.85104 0.128,-11.42272 1.34304,-5.9972 0.84996,3.79548 0.84996,8.19896 0,11.99444 -1.21504,5.42552 -1.34304,4.85384 -1.34304,-5.99724 z"
       id="path14" />
    <path
       style="fill:#c12333;fill-opacity:1;stroke-width:1.05833"
       d="m 139.91721,110.42455 c 0.74372,-1.3582 4.37884,-5.32696 8.07804,-8.81944 l 6.72584,-6.349993 -7.46244,8.819433 c -7.5298,8.89904 -9.8236,10.88304 -7.34144,6.35 z"
       id="path13" />
    <path
       style="fill:#c12333;fill-opacity:1;stroke-width:1.05833"
       d="m 112.44625,137.94119 c 2.96524,-3.68652 5.6756,-6.70276 6.02304,-6.70276 1.11728,0 -4.79312,7.66816 -8.15736,10.58332 -1.79136,1.55224 -0.83088,-0.194 2.13432,-3.88056 z"
       id="path12" />
    <path
       style="fill:#c12333;fill-opacity:1;stroke-width:1.05833"
       d="m 94.38533,170.04399 c 0.503478,-2.32832 1.473398,-5.18584 2.155438,-6.35 0.79356,-1.35448 0.91048,-0.59228 0.3248,2.11668 -0.50344,2.32832 -1.4734,5.1858 -2.15544,6.35 -0.793518,1.35444 -0.910438,0.59228 -0.324798,-2.11668 z"
       id="path9" />
    <path
       style="fill:#c12333;fill-opacity:1;stroke-width:1.05833"
       d="m 102.74125,192.01371 c -0.44652,-0.72248 -0.1664,-1.71244 0.62228,-2.19996 0.78876,-0.48748 1.43412,-0.1764 1.43412,0.69136 0,0.86772 0.64536,1.1788 1.43412,0.69132 0.78876,-0.48748 1.0688,-1.47748 0.62228,-2.19996 -1.18764,-1.92164 2.731,-1.60616 4.71692,0.3796 2.2744,2.27436 2.17228,4.69416 -0.118,2.79348 -1.1482,-0.95292 -2.56872,-1.02408 -3.88056,-0.1944 -2.63976,1.66956 -3.8174,1.67892 -4.83128,0.04 z"
       id="path8" />
    <path
       style="fill:#c12333;fill-opacity:1;stroke-width:1.05833"
       d="m 94.984528,193.44815 c -0.866838,-1.61968 -0.986118,-2.94304 -0.2652,-2.94304 1.45028,0 3.45248,4.27408 2.46484,5.26168 -0.3436,0.3436 -1.33324,-0.69992 -2.19956,-2.31864 z"
       id="path7" />
    <path
       style="fill:#c12333;fill-opacity:1;stroke-width:1.05833"
       d="m 64.816174,196.61991 c -1.56564,-1.5656 -1.05584,-4.22896 0.82312,-4.30044 0.97016,-0.036 2.954156,-0.55852 4.408956,-1.15908 2.54748,-1.05172 2.55452,-0.95384 0.1904,2.65412 -2.506476,3.82536 -3.756116,4.47188 -5.422556,2.8054 z"
       id="path6" />
    <path
       style="fill:#c12333;fill-opacity:1;stroke-width:1.05833"
       d="m 52.586546,194.73843 c -1.3164,-2.45976 -1.07312,-2.8222 1.89424,-2.8222 3.542168,0 7.235668,3.09968 5.619428,4.71592 -1.7037,1.70372 -3.20214,0.95552 -2.3795,-1.18816 0.52728,-1.37412 -0.036,-2.11668 -1.6064,-2.11668 -1.570128,0 -2.133648,0.74256 -1.606368,2.11668 1.183048,3.08296 -0.1572,2.5908 -1.9214,-0.70556 z"
       id="path5" />
    <path
       style="fill:#c12333;fill-opacity:1;stroke-width:1.05833"
       d="m 40.592106,197.56067 c -1.30288,-2.10812 0.50992,-4.23336 3.61104,-4.23336 1.50644,0 2.73896,0.635 2.73896,1.41112 0,0.77612 -1.11124,1.42084 -2.46944,1.43272 -2.1104,0.02 -2.16168,0.2204 -0.3528,1.38952 1.82412,1.1788 1.78688,1.37088 -0.2696,1.38948 -1.3124,0.012 -2.77864,-0.6134 -3.25828,-1.38948 z"
       id="path4" />
    <path
       style="fill:#c12333;fill-opacity:1;stroke-width:1.05833"
       d="m 9.076954,200.95287 c -4.8644959,-3.40724 -3.710976,-10.15012 2.443428,-14.28328 6.317724,-4.24284 17.077344,-4.22056 17.077344,0.036 0,1.03184 -0.56048,0.98188 -1.693348,-0.1512 -2.812948,-2.81296 -9.118832,-1.9122 -13.720528,1.95988 -4.504976,3.79072 -5.609924,8.62512 -2.648268,11.5868 2.647188,2.6472 12.603128,1.99992 17.779184,-1.15592 5.208924,-3.1758 4.858536,-5.53464 -0.85868,-5.78112 -2.588428,-0.1116 -2.975576,-0.376 -1.216188,-0.83052 3.932296,-1.01592 9.41334,0.7944 9.41334,3.10908 0,3.10364 -10.36458,7.76292 -17.268612,7.76292 -3.350708,0 -7.539164,-1.01352 -9.307672,-2.2522 z"
       id="path3" />
    <path
       style="fill:#c12333;fill-opacity:1;stroke-width:1.05833"
       d="m 81.51429,193.32731 c 0.47968,-0.77608 0.1996,-1.41108 -0.62228,-1.41108 -0.82188,0 -1.49436,0.635 -1.49436,1.41108 0,0.77612 0.28,1.41112 0.62228,1.41112 0.3424,0 1.01472,-0.635 1.49436,-1.41112 z"
       id="path2" />
    <path
       style="fill:#c12333;fill-opacity:1;stroke-width:1.05833"
       d="m 86.64765,203.41807 c 2.38652,-3.82144 0.40192,-10.641 -2.72296,-9.35676 -4.19312,1.72332 -6.64372,1.45256 -6.64372,-0.734 0,-3.25952 9.27556,-3.6976 11.5794,-0.54692 2.29268,3.13544 2.3638,9.3226 0.1328,11.5536 -2.61148,2.61148 -4.16868,2.0034 -2.34556,-0.91592 z"
       id="path1" />
  </g>
</svg>
